<svg width="399" height="102" viewBox="0 0 399 102" fill="none" xmlns="http://www.w3.org/2000/svg">
<path d="M361.644 28.9506H371.93V55.522L369.644 54.3792C371.739 47.903 373.882 42.7601 376.072 38.9506C378.263 35.0459 380.882 32.1411 383.929 30.2363C387.072 28.2363 390.882 27.2363 395.358 27.2363C396.31 27.2363 397.025 27.2839 397.501 27.3792V38.9506C396.644 38.7601 395.644 38.6649 394.501 38.6649C387.549 38.6649 382.072 41.2839 378.072 46.522C374.072 51.6649 372.072 58.4744 372.072 66.9506V100.236H361.644V28.9506Z" fill="currentcolor"/>
<path d="M294.644 28.9499H305.073V49.3785L303.216 46.5213C306.549 40.3309 310.454 35.569 314.93 32.2356C319.501 28.8071 324.739 27.0928 330.644 27.0928C335.12 27.0928 339.025 28.1404 342.358 30.2356C345.787 32.3309 348.406 35.3785 350.216 39.3785C352.12 43.3785 353.073 48.1404 353.073 53.6642V100.236H342.501V57.6642C342.501 50.0452 341.216 44.6642 338.644 41.5213C336.168 38.2832 332.358 36.6642 327.216 36.6642C323.311 36.6642 319.644 37.7594 316.216 39.9499C312.882 42.1404 310.168 45.2832 308.073 49.3785C306.073 53.3785 305.073 57.9975 305.073 63.2356V100.236H294.644V28.9499Z" fill="currentcolor"/>
<path d="M227.644 28.9499H238.072V49.3785L236.215 46.5213C239.548 40.3309 243.453 35.569 247.929 32.2356C252.501 28.8071 257.739 27.0928 263.644 27.0928C268.12 27.0928 272.024 28.1404 275.358 30.2356C278.786 32.3309 281.405 35.3785 283.215 39.3785C285.12 43.3785 286.072 48.1404 286.072 53.6642V100.236H275.501V57.6642C275.501 50.0452 274.215 44.6642 271.644 41.5213C269.167 38.2832 265.358 36.6642 260.215 36.6642C256.31 36.6642 252.644 37.7594 249.215 39.9499C245.882 42.1404 243.167 45.2832 241.072 49.3785C239.072 53.3785 238.072 57.9975 238.072 63.2356V100.236H227.644V28.9499Z" fill="currentcolor"/>
<path d="M189.518 101.95C182.851 101.95 176.946 100.426 171.804 97.3785C166.756 94.2356 162.804 89.8547 159.946 84.2356C157.185 78.6166 155.804 72.0928 155.804 64.6642C155.804 57.3309 157.185 50.8071 159.946 45.0928C162.804 39.3785 166.708 34.9499 171.661 31.8071C176.613 28.6642 182.327 27.0928 188.804 27.0928C194.613 27.0928 199.804 28.5213 204.375 31.3785C208.946 34.1404 212.565 38.0928 215.232 43.2356C217.899 48.3785 219.232 54.3785 219.232 61.2356C219.232 61.9023 219.232 62.4261 219.232 62.8071C219.232 63.0928 219.232 63.6166 219.232 64.3785H162.089V55.5213H214.518L208.089 60.5213C208.089 59.3785 208.089 58.2356 208.089 57.0928C208.089 50.7118 206.232 45.6166 202.518 41.8071C198.899 37.9975 194.232 36.0928 188.518 36.0928C184.518 36.0928 180.851 37.0928 177.518 39.0928C174.28 41.0928 171.708 43.9975 169.804 47.8071C167.899 51.6166 166.899 55.9499 166.804 60.8071C166.708 61.569 166.661 62.0928 166.661 62.3785C166.661 62.6642 166.613 63.1404 166.518 63.8071C166.423 72.7594 168.47 79.8547 172.661 85.0928C176.851 90.2356 182.47 92.8071 189.518 92.8071C194.185 92.8071 198.089 91.6166 201.232 89.2356C204.47 86.8547 206.756 83.4737 208.089 79.0928H218.661C216.851 85.8547 213.423 91.3785 208.375 95.6642C203.423 99.8547 197.137 101.95 189.518 101.95Z" fill="currentcolor"/>
<path d="M132.07 10.093H93.3559V0.23584H181.784V10.093H143.07V100.236H132.07V10.093Z" fill="currentColor"/>
<path d="M54.6411 29.522H93.2123V100.236H38.5698V75.9497H54.9995V70.9497H-0.00152588V0.23584H54.6411V29.522Z" fill="currentColor"/>
</svg>
